<svg xmlns="http://www.w3.org/2000/svg" viewBox="0 0 200 200" width="200" height="200">
  <defs>
    <linearGradient id="magnetGrad" x1="0%" y1="0%" x2="100%" y2="100%">
      <stop offset="0%" style="stop-color:#6366f1;stop-opacity:1" />
      <stop offset="50%" style="stop-color:#8b5cf6;stop-opacity:1" />
      <stop offset="100%" style="stop-color:#a855f7;stop-opacity:1" />
    </linearGradient>
    <linearGradient id="northGrad" x1="0%" y1="0%" x2="0%" y2="100%">
      <stop offset="0%" style="stop-color:#ef4444;stop-opacity:1" />
      <stop offset="100%" style="stop-color:#dc2626;stop-opacity:1" />
    </linearGradient>
    <linearGradient id="southGrad" x1="0%" y1="0%" x2="0%" y2="100%">
      <stop offset="0%" style="stop-color:#3b82f6;stop-opacity:1" />
      <stop offset="100%" style="stop-color:#2563eb;stop-opacity:1" />
    </linearGradient>
    <linearGradient id="currentGrad" x1="0%" y1="0%" x2="100%" y2="100%">
      <stop offset="0%" style="stop-color:#06b6d4;stop-opacity:1" />
      <stop offset="100%" style="stop-color:#22d3ee;stop-opacity:1" />
    </linearGradient>
    <filter id="glow">
      <feGaussianBlur stdDeviation="2" result="coloredBlur"/>
      <feMerge>
        <feMergeNode in="coloredBlur"/>
        <feMergeNode in="SourceGraphic"/>
      </feMerge>
    </filter>
  </defs>
  
  <!-- Background -->
  <rect width="200" height="200" fill="#0f0f1a"/>
  
  <!-- Outer ring -->
  <circle cx="100" cy="100" r="90" fill="none" stroke="#2d2d44" stroke-width="2"/>
  <circle cx="100" cy="100" r="85" fill="none" stroke="url(#magnetGrad)" stroke-width="1" opacity="0.3"/>
  
  <!-- Eddy current rings -->
  <ellipse cx="100" cy="100" rx="70" ry="70" fill="none" stroke="url(#currentGrad)" stroke-width="2" opacity="0.6"/>
  <ellipse cx="100" cy="100" rx="65" ry="65" fill="none" stroke="url(#currentGrad)" stroke-width="1.5" opacity="0.5" stroke-dasharray="20 10"/>
  <ellipse cx="100" cy="100" rx="58" ry="58" fill="none" stroke="url(#currentGrad)" stroke-width="1" opacity="0.4"/>
  <ellipse cx="100" cy="100" rx="50" ry="50" fill="none" stroke="url(#currentGrad)" stroke-width="2" opacity="0.7" stroke-dasharray="30 15"/>
  
  <!-- Magnetic field lines -->
  <path d="M 100 25 Q 140 60 140 100" fill="none" stroke="#6366f1" stroke-width="1.5" opacity="0.4" stroke-linecap="round"/>
  <path d="M 100 25 Q 60 60 60 100" fill="none" stroke="#6366f1" stroke-width="1.5" opacity="0.4" stroke-linecap="round"/>
  <path d="M 100 175 Q 140 140 140 100" fill="none" stroke="#6366f1" stroke-width="1.5" opacity="0.4" stroke-linecap="round"/>
  <path d="M 100 175 Q 60 140 60 100" fill="none" stroke="#6366f1" stroke-width="1.5" opacity="0.4" stroke-linecap="round"/>
  
  <!-- Central Magnet -->
  <g filter="url(#glow)">
    <rect x="75" y="60" width="50" height="80" rx="4" fill="url(#magnetGrad)"/>
    <rect x="75" y="60" width="50" height="38" rx="4" fill="url(#northGrad)"/>
    <text x="100" y="85" font-family="Arial, sans-serif" font-size="20" font-weight="bold" fill="white" text-anchor="middle">N</text>
    <rect x="75" y="102" width="50" height="38" rx="4" fill="url(#southGrad)"/>
    <text x="100" y="127" font-family="Arial, sans-serif" font-size="20" font-weight="bold" fill="white" text-anchor="middle">S</text>
    <rect x="78" y="62" width="10" height="76" rx="2" fill="white" opacity="0.2"/>
  </g>
</svg>